<svg width="128" height="128" viewBox="0 0 128 128" fill="none" xmlns="http://www.w3.org/2000/svg">
<path fill-rule="evenodd" clip-rule="evenodd" d="M1 18.5H18.7256L34.6882 82.3506C35.4116 85.2442 38.0115 87.2741 40.9941 87.2741H101.751C104.481 87.2741 106.92 85.5687 107.856 83.0049L126.593 31.7265L118.139 28.6378L100.003 78.2741H42.9461L26.9834 14.4235C26.26 11.5299 23.6602 9.5 20.6775 9.5H1V18.5ZM57.7058 108.059C57.7058 110.331 55.864 112.173 53.592 112.173C51.32 112.173 49.4781 110.331 49.4781 108.059C49.4781 105.787 51.32 103.945 53.592 103.945C55.864 103.945 57.7058 105.787 57.7058 108.059ZM63.7058 108.059C63.7058 113.644 59.1777 118.173 53.592 118.173C48.0063 118.173 43.4781 113.644 43.4781 108.059C43.4781 102.473 48.0063 97.9449 53.592 97.9449C59.1777 97.9449 63.7058 102.473 63.7058 108.059ZM94.0474 112.173C96.3194 112.173 98.1612 110.331 98.1612 108.059C98.1612 105.787 96.3194 103.945 94.0474 103.945C91.7753 103.945 89.9335 105.787 89.9335 108.059C89.9335 110.331 91.7753 112.173 94.0474 112.173ZM94.0474 118.173C99.6331 118.173 104.161 113.644 104.161 108.059C104.161 102.473 99.6331 97.9449 94.0474 97.9449C88.4616 97.9449 83.9335 102.473 83.9335 108.059C83.9335 113.644 88.4616 118.173 94.0474 118.173ZM65.242 19.992H73.24V11.822H54.836C52.8867 11.822 51.5967 12.1373 50.966 12.768C50.3927 13.3987 50.106 14.7173 50.106 16.724V69.27C50.106 71.2193 50.3927 72.5093 50.966 73.14C51.5967 73.7133 52.8867 74 54.836 74H63.866V20.68C63.866 20.2213 64.3247 19.992 65.242 19.992ZM86.226 46.996H78.056V63.422C78.056 65.0847 76.8807 65.916 74.53 65.916H67.306V74H85.108C86.5987 74 87.8313 73.7707 88.806 73.312C90.8127 72.452 91.816 70.13 91.816 66.346V53.618C91.816 51.3247 91.472 49.662 90.784 48.63C90.096 47.5407 88.5767 46.996 86.226 46.996ZM85.108 11.822H76.938V32.032C76.938 33.4653 76.7373 34.526 76.336 35.214C75.992 35.902 75.1033 36.246 73.67 36.246H67.306V44.416H81.41C85.1367 44.416 87.5733 43.6707 88.72 42.18C89.924 40.6893 90.526 38.2813 90.526 34.956V18.444C90.526 16.0933 90.182 14.402 89.494 13.37C88.8633 12.338 87.4013 11.822 85.108 11.822Z" fill="white"/>
</svg>
